<svg xmlns="http://www.w3.org/2000/svg" viewBox="0 0 128 128">
  <!-- 站点标识：「杕」（U+6755，木+大）——作者斋号「杕舍」。
       别写成形近的「杚」U+675A（木+气）。
       字形是 Kaiti SC Bold（华文楷体粗体）的真矢量轮廓，取自系统按需字体资源；
       选 Bold 是因为楷体横画细，Regular 缩到 16px 会断。绿沿用 GitHub 头像与公众号品牌色。
       这里刻意不画圆环：标签页图标只有 16-32px，环会把笔画挤成一团；
       带环的完整形态见 apple-touch-icon.png。 -->
  <g transform="translate(-5.99 104.75) scale(0.13866 -0.13866)">
    <path fill="#8DC63F" d="M939 -38Q877 -46 840.0 -48.5Q803 -51 780.5 -46.5Q758 -42 746.5 -30.5Q735 -19 723 1Q688 63 659.0 114.5Q630 166 600 220Q587 167 568.0 126.5Q549 86 521.0 53.0Q493 20 454.0 -6.5Q415 -33 365 -56Q340 -68 337.0 -59.5Q334 -51 358 -33Q401 1 434.0 39.0Q467 77 490.5 120.5Q514 164 529.0 215.5Q544 267 550 330Q536 327 523.5 323.5Q511 320 500 317Q478 310 463.5 306.5Q449 303 439.5 303.0Q430 303 421.0 306.5Q412 310 401 317Q352 345 405 352Q435 355 473.5 362.0Q512 369 554 379Q565 500 562.5 565.5Q560 631 540 658Q516 689 525.5 699.5Q535 710 593 689Q620 680 635.0 672.0Q650 664 656.0 655.5Q662 647 660.5 637.5Q659 628 652 614Q646 600 641.5 578.0Q637 556 635 515Q633 495 631.0 463.0Q629 431 625 396Q672 409 707 421Q725 427 739.0 430.5Q753 434 764.5 434.0Q776 434 787.0 430.5Q798 427 811 420Q847 398 842.5 381.5Q838 365 784 364Q748 363 705.5 358.0Q663 353 619 344Q618 339 617.5 334.0Q617 329 617 324L613 292Q660 224 699.0 177.0Q738 130 775.5 97.0Q813 64 852.0 42.0Q891 20 940 1Q981 -16 981.0 -24.5Q981 -33 939 -38ZM381 204Q370 212 354.0 227.5Q338 243 321 264Q320 213 320.0 162.5Q320 112 321 68Q322 35 321.5 11.5Q321 -12 320.0 -30.0Q319 -48 317.0 -60.5Q315 -73 312 -83Q301 -129 281.0 -131.5Q261 -134 239 -84Q230 -63 228.5 -37.5Q227 -12 237 14Q241 24 244.5 39.5Q248 55 251.0 82.0Q254 109 256.5 150.5Q259 192 261 256Q224 191 177.5 146.0Q131 101 69 70Q33 52 29.0 60.0Q25 68 55 97Q90 130 118.5 163.0Q147 196 171.0 230.5Q195 265 215.5 303.0Q236 341 256 384Q191 372 159.0 370.5Q127 369 110 376Q45 400 112 409Q138 413 179.5 422.5Q221 432 267 445Q268 501 268.0 539.5Q268 578 265.5 604.0Q263 630 258.5 645.5Q254 661 248 671Q224 707 234.5 716.5Q245 726 302 704Q346 687 355.0 674.5Q364 662 354 640Q347 627 343.5 613.5Q340 600 337.5 580.5Q335 561 333.0 532.5Q331 504 328 463Q330 464 330.5 464.0Q331 464 333 465Q367 475 386.0 477.0Q405 479 419 473Q448 461 440.5 442.0Q433 423 386 411Q368 407 353.5 404.0Q339 401 325 398Q323 374 323.0 349.0Q323 324 322 296H325Q371 293 393.0 283.0Q415 273 423 253Q433 220 417.0 206.5Q401 193 381 204Z" />
  </g>
</svg>
